<svg xmlns="http://www.w3.org/2000/svg" viewBox="0 0 64 64">
  <rect width="64" height="64" fill="#ffffff" />
  <g fill="#000000">
    <circle cx="14" cy="20" r="1.4" />
    <circle cx="20" cy="17" r="1.6" />
    <circle cx="26" cy="17" r="1.6" />
    <circle cx="32" cy="17" r="1.6" />
    <circle cx="38" cy="17" r="1.6" />
    <circle cx="44" cy="17" r="1.6" />
    <circle cx="50" cy="17" r="1.6" />
    <circle cx="56" cy="20" r="1.4" />

    <circle cx="14" cy="26" r="1.4" />
    <circle cx="20" cy="22" r="2.0" />
    <circle cx="26" cy="22" r="2.0" />
    <circle cx="32" cy="22" r="2.0" />
    <circle cx="38" cy="22" r="2.0" />
    <circle cx="44" cy="22" r="2.0" />
    <circle cx="50" cy="22" r="2.0" />
    <circle cx="56" cy="26" r="1.4" />

    <circle cx="14" cy="34" r="1.4" />
    <circle cx="20" cy="30" r="2.0" />
    <circle cx="26" cy="30" r="2.4" />
    <circle cx="32" cy="30" r="2.8" />
    <circle cx="38" cy="30" r="2.8" />
    <circle cx="44" cy="30" r="2.4" />
    <circle cx="50" cy="30" r="2.0" />
    <circle cx="56" cy="34" r="1.4" />

    <circle cx="14" cy="42" r="1.4" />
    <circle cx="20" cy="38" r="1.9" />
    <circle cx="26" cy="38" r="2.3" />
    <circle cx="32" cy="38" r="2.7" />
    <circle cx="38" cy="38" r="2.7" />
    <circle cx="44" cy="38" r="2.3" />
    <circle cx="50" cy="38" r="1.9" />
    <circle cx="56" cy="42" r="1.4" />

    <circle cx="14" cy="50" r="1.4" />
    <circle cx="20" cy="46" r="1.8" />
    <circle cx="26" cy="46" r="2.2" />
    <circle cx="32" cy="46" r="2.0" />
    <circle cx="38" cy="46" r="2.0" />
    <circle cx="44" cy="46" r="2.2" />
    <circle cx="50" cy="46" r="1.8" />
    <circle cx="56" cy="50" r="1.4" />

    <circle cx="20" cy="54" r="1.4" />
    <circle cx="26" cy="54" r="1.3" />
    <circle cx="32" cy="54" r="1.3" />
    <circle cx="38" cy="54" r="1.3" />
    <circle cx="44" cy="54" r="1.3" />
    <circle cx="50" cy="54" r="1.4" />
  </g>
</svg>
